# xmcd
#
# Track frame offsets:
#	150
#	17107
#	39847
#	59880
#	82650
#	100727
#	117932
#	136642
#	158927
#	177877
#	200272
#	217472
#	237887
#
# Disc length: 3402
#
# Revision: 2
# Processed by: cddbd v1.5.1PL0 Copyright (c) Steve Scherf et al.
# Submitted via: audiograbber 1.81.03
# Normalized: r1:TDELIM( - )
#
DISCID=aa0d480d
DTITLE=Alligator Records Blues Sampler - Gator Bytes
DYEAR=2001
DGENRE=
TTITLE0=LUTHER ALLISON - Low Down and Dirty
TTITLE1=KOKO TAYLOR - Ernestine
TTITLE2=MARCIA BALL - Louella
TTITLE3=RUSTY ZINN - The Chill
TTITLE4=SHEMEKIA COPELAND - Whole Lotta Water
TTITLE5=BUDDY GUY and JUNIOR WELLS - Give Me My Coat and Shoes
TTITLE6=THE HOLMES BROTHERS - Speaking In Tongues
TTITLE7=HOUND DOG TAYLOR - See Me In The Evening
TTITLE8=JOHNNY WINTER - Route 90
TTITLE9=SAFFIRE-THE UPPITY BLUES WOMEN - Nobody Ever Touched Me There
TTITLE10=SONNY TERRY WITH JOHNNY WINTER and WILLIE DIXON - Crow Jane
TTITLE11=ALBERT COLLINS and THE ICE BREAKERS - Ego Trip
TTITLE12=DAVE HOLE - Living On Borrowed Time
EXTD=
EXTT0=
EXTT1=
EXTT2=
EXTT3=
EXTT4=
EXTT5=
EXTT6=
EXTT7=
EXTT8=
EXTT9=
EXTT10=
EXTT11=
EXTT12=
PLAYORDER=
